<?xml version="1.0" encoding="UTF-8"?>
<svg width="90px" height="90px" viewBox="0 0 90 90" version="1.1" xmlns="http://www.w3.org/2000/svg" xmlns:xlink="http://www.w3.org/1999/xlink">
    <g id="test" transform="translate(3.000000, 3.000000)" stroke="#3EBD93" stroke-width="1" fill="none" fill-rule="evenodd">
        <ellipse id="Oval" fill="#3EBD93" fill-rule="nonzero" cx="42" cy="42.5060241" rx="20" ry="20.2409639"></ellipse>
        <path d="M48.129095,68.0839509 C59.5307867,65.2955268 68,54.9017371 68,42.5060241 C68,40.1617373 67.6970845,37.8890527 67.1287051,35.7258729" id="Oval" stroke-width="6" opacity="0.7"></path>
        <path d="M60.6146435,24.1353082 C55.8925613,19.2353047 49.2973616,16.1927711 42,16.1927711 C34.8510463,16.1927711 28.375985,19.1128097 23.6757727,23.8386659" id="Oval" stroke-width="6" opacity="0.7"></path>
        <path d="M17.1422646,34.7685002 C16.3996752,37.2149043 16,39.8132273 16,42.5060241 C16,54.4199374 23.8236411,64.4845257 34.5550295,67.7246673" id="Oval" stroke-width="6" opacity="0.7"></path>
        <path d="M49.9515464,75.9695278 C64.8934564,72.3462071 76,58.7387787 76,42.5060241 C76,39.5521291 75.632223,36.685168 74.940483,33.9494827" id="Oval" stroke-width="6" opacity="0.4"></path>
        <path d="M9.28905138,32.0766216 C8.44941173,35.069578 8,39.24071 8,42.5060241 C8,58.0288461 18.1563073,71.1509554 32.1106356,75.43746" id="Oval" stroke-width="6" opacity="0.4"></path>
        <path d="M66.5474002,18.6966143 C60.4375665,12.7583767 51.1399538,8.09638555 42,8.09638555 C32.6017485,8.09638555 24.0941204,11.9555402 17.939875,18.1934669" id="Oval" stroke-width="6" opacity="0.4"></path>
        <path d="M51.9808095,83.8045729 C70.3585475,79.2712145 84,62.5008789 84,42.5060241 C84,38.9160669 83.5602532,35.4300555 82.732301,32.1001523" id="Oval" stroke-width="6" opacity="0.1"></path>
        <path d="M1.61669325,29.7743776 C0.563841727,33.4971425 0,38.4409679 0,42.5060241 C0,61.7620393 12.6519348,78.0274341 30.0017865,83.2523591" id="Oval" stroke-width="6" opacity="0.1"></path>
        <path d="M71.5345866,12.2847581 C63.9473856,4.6896832 53.51484,1.42108547e-14 42,1.42108547e-14 C30.4637398,1.42108547e-14 20.0138044,4.70714716 12.4231012,12.3271739" id="Oval" stroke-width="6" opacity="0.1"></path>
    </g>
</svg>